<svg width="30" height="30" viewBox="0 0 30 30" fill="none" xmlns="http://www.w3.org/2000/svg">
<path d="M24.3628 6.70135C23.8236 6.16197 23.1835 5.7341 22.479 5.44218C21.7745 5.15025 21.0193 5 20.2567 5C19.4941 5 18.7389 5.15025 18.0344 5.44218C17.3299 5.7341 16.6898 6.16197 16.1507 6.70135L15.0318 7.82022L13.9129 6.70135C12.8239 5.61236 11.3469 5.00056 9.80684 5.00056C8.26677 5.00056 6.78978 5.61236 5.70079 6.70135C4.61179 7.79034 4 9.26734 4 10.8074C4 12.3475 4.61179 13.8245 5.70079 14.9135L6.81966 16.0323L15.0318 24.2445L23.2439 16.0323L24.3628 14.9135C24.9021 14.3743 25.33 13.7342 25.6219 13.0297C25.9139 12.3252 26.0641 11.57 26.0641 10.8074C26.0641 10.0448 25.9139 9.28965 25.6219 8.58512C25.33 7.88059 24.9021 7.24047 24.3628 6.70135V6.70135Z" stroke="#353940" stroke-width="3" stroke-linecap="round" stroke-linejoin="round"/>
</svg>
