<svg width="20" height="20" viewBox="0 0 20 20" fill="none" xmlns="http://www.w3.org/2000/svg">
<path d="M10.0305 10.8334C10.4893 10.8334 10.8613 10.4603 10.8613 10.0001C10.8613 9.53984 10.4893 9.16675 10.0305 9.16675C9.57166 9.16675 9.19971 9.53984 9.19971 10.0001C9.19971 10.4603 9.57166 10.8334 10.0305 10.8334Z" stroke="#353940" stroke-width="1.66667" stroke-linecap="round" stroke-linejoin="round"/>
<path d="M10.0305 5.00004C10.4893 5.00004 10.8613 4.62694 10.8613 4.16671C10.8613 3.70647 10.4893 3.33337 10.0305 3.33337C9.57166 3.33337 9.19971 3.70647 9.19971 4.16671C9.19971 4.62694 9.57166 5.00004 10.0305 5.00004Z" stroke="#353940" stroke-width="1.66667" stroke-linecap="round" stroke-linejoin="round"/>
<path d="M10.0305 16.6667C10.4893 16.6667 10.8613 16.2936 10.8613 15.8333C10.8613 15.3731 10.4893 15 10.0305 15C9.57166 15 9.19971 15.3731 9.19971 15.8333C9.19971 16.2936 9.57166 16.6667 10.0305 16.6667Z" stroke="#353940" stroke-width="1.66667" stroke-linecap="round" stroke-linejoin="round"/>
</svg>
